HIERARCHY
ROOT pelvis
{
	OFFSET 0.000000 0.718188 -0.000000
	CHANNELS 6 Xposition Yposition Zposition Xrotation Yrotation Zrotation
	JOINT spine
	{
		OFFSET 0.000000 0.000000 0.000000
		CHANNELS 6 Xposition Yposition Zposition Xrotation Yrotation Zrotation
		JOINT spine.001
		{
			OFFSET 0.000000 0.230300 0.012070
			CHANNELS 3 Xrotation Yrotation Zrotation
			JOINT neck
			{
				OFFSET 0.000000 0.228897 -0.028105
				CHANNELS 6 Xposition Yposition Zposition Xrotation Yrotation Zrotation
				JOINT face
				{
					OFFSET 0.000000 0.177999 -0.003107
					CHANNELS 6 Xposition Yposition Zposition Xrotation Yrotation Zrotation
					End Site
					{
						OFFSET 0.000000 -0.007061 0.030294
					}
				}
			}
			JOINT shoulder.L
			{
				OFFSET 0.000000 0.228897 -0.028105
				CHANNELS 6 Xposition Yposition Zposition Yrotation Xrotation Zrotation
				JOINT upper_arm.L
				{
					OFFSET 0.159763 0.000000 0.000000
					CHANNELS 6 Xposition Yposition Zposition Xrotation Yrotation Zrotation
					JOINT forearm.L
					{
						OFFSET 0.255072 0.000880 -0.000106
						CHANNELS 6 Xposition Yposition Zposition Xrotation Yrotation Zrotation
						End Site
						{
							OFFSET 0.221890 -0.001212 0.003776
						}
					}
				}
			}
			JOINT shoulder.R
			{
				OFFSET 0.000000 0.228897 -0.028105
				CHANNELS 6 Xposition Yposition Zposition Yrotation Xrotation Zrotation
				JOINT upper_arm.R
				{
					OFFSET -0.159763 0.000000 0.000000
					CHANNELS 6 Xposition Yposition Zposition Xrotation Yrotation Zrotation
					JOINT forearm.R
					{
						OFFSET -0.251549 0.000880 -0.000106
						CHANNELS 6 Xposition Yposition Zposition Xrotation Yrotation Zrotation
						End Site
						{
							OFFSET -0.225898 -0.001213 0.003846
						}
					}
				}
			}
		}
	}
	JOINT pelvis.L
	{
		OFFSET 0.000000 0.000000 0.000000
		CHANNELS 6 Xposition Yposition Zposition Yrotation Xrotation Zrotation
		End Site
		{
			OFFSET 0.095584 0.000000 0.000000
		}
	}
	JOINT pelvis.R
	{
		OFFSET 0.000000 0.000000 0.000000
		CHANNELS 6 Xposition Yposition Zposition Yrotation Xrotation Zrotation
		End Site
		{
			OFFSET -0.095584 0.000000 0.000000
		}
	}
	JOINT thigh.L
	{
		OFFSET 0.095584 0.000000 0.000000
		CHANNELS 6 Xposition Yposition Zposition Xrotation Yrotation Zrotation
		JOINT shin.L
		{
			OFFSET 0.017273 -0.329597 0.000000
			CHANNELS 6 Xposition Yposition Zposition Xrotation Yrotation Zrotation
			JOINT foot.L
			{
				OFFSET 0.016863 -0.321756 0.000000
				CHANNELS 6 Xposition Yposition Zposition Xrotation Yrotation Zrotation
				End Site
				{
					OFFSET 0.014462 -0.061917 0.147452
				}
			}
		}
	}
	JOINT thigh.R
	{
		OFFSET -0.095584 0.000000 0.000000
		CHANNELS 6 Xposition Yposition Zposition Xrotation Yrotation Zrotation
		JOINT shin.R
		{
			OFFSET -0.017343 -0.330928 0.000000
			CHANNELS 6 Xposition Yposition Zposition Xrotation Yrotation Zrotation
			JOINT foot.R
			{
				OFFSET -0.016927 -0.322983 0.000000
				CHANNELS 6 Xposition Yposition Zposition Xrotation Yrotation Zrotation
				End Site
				{
					OFFSET -0.015346 -0.065703 0.156466
				}
			}
		}
	}
}
MOTION
Frames: 4
Frame Time: 0.041667
-0.103377 -0.009051 -0.048803 0.000001 -16.412352 0.000003 0.000000 -0.000000 0.000000 -3.527114 -0.594985 7.130922 10.003307 -1.750125 0.214927 0.000000 0.228897 -0.028105 43.087545 -22.085039 7.745876 0.000000 0.177999 -0.003107 -5.336690 -0.000011 0.000003 -0.000000 0.228897 -0.028105 -0.119496 -0.001016 -0.973303 0.159763 0.000000 -0.000000 -2.845855 -3.464952 -78.416705 0.255072 0.000880 -0.000106 -1.739001 -16.066347 -13.199363 -0.000000 0.228897 -0.028105 -0.125516 -0.001119 -1.022386 -0.159763 -0.000000 -0.000000 -2.152336 2.609467 78.399281 -0.251549 0.000880 -0.000106 -1.199115 16.428287 8.676693 -0.000000 0.000000 0.000000 -0.000073 0.000004 4.217629 -0.000000 0.000000 0.000000 0.000014 -0.000001 4.217627 0.095325 0.007030 -0.000000 3.723275 0.206383 0.342998 0.017273 -0.329597 0.000000 7.929672 0.819868 5.787460 0.016863 -0.321756 0.000000 -3.956476 16.365550 7.867405 -0.095325 -0.007030 0.000000 4.422045 0.090915 8.354350 -0.017343 -0.330928 0.000000 -2.508830 0.105960 1.164318 -0.016927 -0.322983 0.000000 -6.659430 3.349339 0.974461 
-0.103746 -0.008851 -0.048794 0.000001 -16.707001 0.000003 -0.000000 -0.000000 0.000000 -3.432843 -0.597328 7.230645 10.004885 -2.130954 0.261752 -0.000000 0.228897 -0.028105 43.105857 -22.353348 7.790427 0.000000 0.177999 -0.003107 -5.660416 -0.000002 -0.000005 -0.000000 0.228897 -0.028105 -0.123014 -0.001077 -1.001828 0.159763 0.000000 -0.000000 -2.792767 -3.410718 -78.232789 0.255072 0.000880 -0.000106 -1.834591 -16.534928 -13.485560 -0.000000 0.228897 -0.028105 -0.129020 -0.001181 -1.050905 -0.159763 0.000000 0.000000 -2.390191 2.903871 78.385833 -0.251549 0.000880 -0.000106 -1.234449 16.549933 8.871131 -0.000000 0.000000 0.000000 0.000012 0.000000 4.208665 -0.000000 0.000000 0.000000 0.000012 -0.000001 4.208635 0.095326 0.007015 0.000000 3.592485 0.196306 0.253388 0.017273 -0.329597 0.000000 8.309887 0.868211 5.908523 0.016863 -0.321756 0.000000 -4.109047 16.494022 7.967268 -0.095326 -0.007015 0.000000 4.508898 0.093245 8.368145 -0.017343 -0.330928 0.000000 -2.781942 0.117898 1.147835 -0.016927 -0.322983 0.000000 -6.499148 3.662754 1.139192 
-0.104207 -0.008518 -0.048737 0.000001 -16.987121 0.000003 0.000000 -0.000000 0.000000 -3.315000 -0.598167 7.332421 10.006637 -2.500326 0.307190 0.000000 0.228897 -0.028105 43.015657 -22.516938 7.903366 -0.000000 0.177999 -0.003107 -6.079958 -0.000007 0.000006 -0.000000 0.228897 -0.028105 -0.120551 -0.001028 -0.981257 0.159763 -0.000000 -0.000000 -2.757387 -3.372284 -78.145369 0.255072 0.000880 -0.000106 -1.890777 -16.831569 -13.624450 -0.000000 0.228897 -0.028105 -0.126567 -0.001135 -1.030335 -0.159763 0.000000 -0.000000 -2.565819 3.119409 78.409732 -0.251549 0.000880 -0.000106 -1.256016 16.659822 8.964600 -0.000000 0.000000 0.000000 0.000055 -0.000002 4.228048 -0.000000 0.000000 0.000000 0.000000 0.000000 4.228053 0.095324 0.007047 -0.000000 3.467939 0.185911 0.135436 0.017273 -0.329597 0.000000 8.674463 0.923144 6.126327 0.016863 -0.321756 0.000000 -4.174777 16.603039 8.034961 -0.095324 -0.007047 0.000000 4.504213 0.094528 8.403042 -0.017343 -0.330928 0.000000 -2.865358 0.122662 1.098577 -0.016927 -0.322983 0.000000 -6.443361 3.948356 1.282965 
-0.104741 -0.008169 -0.048611 0.000001 -17.225356 0.000003 -0.000000 -0.000000 0.000000 -3.181568 -0.596287 7.415781 10.008461 -2.822170 0.346909 0.000000 0.228897 -0.028105 42.859201 -22.369935 8.119302 0.000000 0.177999 -0.003107 -6.327790 -0.000006 -0.000004 -0.000000 0.228897 -0.028105 -0.112350 -0.000898 -0.914724 0.159763 -0.000000 0.000000 -2.716934 -3.325141 -78.094887 0.255072 0.000880 -0.000106 -1.961268 -17.124498 -13.866325 -0.000000 0.228897 -0.028105 -0.118356 -0.000994 -0.963758 -0.159763 -0.000000 -0.000000 -2.656541 3.230685 78.422565 -0.251549 0.000880 -0.000106 -1.271663 16.810844 8.984731 -0.000000 0.000000 0.000000 -0.000019 -0.000001 4.253344 -0.000000 0.000000 0.000000 0.000003 -0.000000 4.253382 0.095321 0.007089 -0.000000 3.367932 0.176345 -0.007182 0.017273 -0.329597 0.000000 8.971917 0.977279 6.408122 0.016863 -0.321756 0.000000 -4.176770 16.723481 8.090601 -0.095321 -0.007089 0.000000 4.457763 0.094666 8.431840 -0.017343 -0.330928 0.000000 -2.798729 0.120320 1.077352 -0.016927 -0.322983 0.000000 -6.475022 4.134353 1.372471 
